<?xml version="1.0" encoding="UTF-8" standalone="no"?>
<!DOCTYPE svg PUBLIC "-//W3C//DTD SVG 1.1//EN" "http://www.w3.org/Graphics/SVG/1.1/DTD/svg11.dtd">
<svg xmlns="http://www.w3.org/2000/svg" version="1.1" viewBox="0.00 0.00 960.00 238.00">
<rect fill="#000000" x="253.78" y="26.51" width="2.60" height="178.98" rx="0.40"/>
<path fill="#000000" d="
  M 199.99 122.35
  A 70.47 70.47 0.0 0 1 129.52 192.82
  A 70.47 70.47 0.0 0 1 59.05 122.35
  A 70.47 70.47 0.0 0 1 129.52 51.88
  A 70.47 70.47 0.0 0 1 199.99 122.35
  Z
  M 192.94 122.35
  A 63.42 63.42 0.0 0 0 129.52 58.93
  A 63.42 63.42 0.0 0 0 66.10 122.35
  A 63.42 63.42 0.0 0 0 129.52 185.77
  A 63.42 63.42 0.0 0 0 192.94 122.35
  Z"
/>
<path fill="#000000" d="
  M 811.70 68.50
  Q 812.18 68.47 812.55 68.24
  C 817.98 64.95 818.44 79.27 818.92 81.32
  Q 819.74 84.83 819.70 86.79
  Q 819.60 92.06 818.21 97.17
  Q 818.11 97.52 818.18 97.85
  Q 818.22 98.06 818.27 98.28
  Q 818.34 98.56 818.25 98.85
  Q 816.89 103.52 816.30 108.36
  A 2.58 2.58 0.0 0 0 816.69 110.06
  C 818.71 113.23 821.06 117.02 820.75 121.01
  A 0.72 0.71 -2.6 0 1 820.15 121.66
  L 814.20 122.55
  A 1.29 1.27 -88.6 0 0 813.13 123.59
  C 812.59 126.59 812.28 130.27 810.51 132.75
  Q 810.21 133.17 810.40 133.64
  Q 811.60 136.72 809.44 139.18
  A 1.09 1.08 -32.9 0 0 809.22 140.20
  Q 810.09 143.05 808.59 145.53
  A 1.12 1.12 0.0 0 0 808.48 146.44
  C 809.43 149.34 807.36 155.89 806.34 158.82
  Q 806.19 159.27 805.71 159.27
  C 802.29 159.24 798.98 156.92 795.69 155.89
  Q 795.18 155.73 795.27 155.20
  Q 795.64 153.18 793.85 152.32
  Q 793.30 152.06 793.19 151.45
  Q 793.01 150.44 793.68 149.63
  Q 794.01 149.22 793.84 148.73
  C 792.81 145.82 795.16 139.28 796.06 136.23
  Q 796.14 135.96 796.37 135.79
  Q 796.84 135.44 796.41 134.88
  A 0.51 0.50 30.6 0 1 796.31 134.50
  L 797.42 126.70
  Q 797.50 126.15 796.95 126.24
  Q 795.44 126.49 793.99 127.00
  Q 779.48 132.19 766.51 140.51
  A 1.69 1.63 -5.6 0 0 765.87 141.26
  Q 765.38 142.37 765.91 143.51
  Q 766.13 144.00 765.90 144.49
  L 759.95 156.97
  A 0.99 0.98 -65.5 0 1 758.68 157.45
  L 750.72 154.05
  A 1.38 1.38 0.0 0 1 749.95 153.20
  C 749.09 150.53 747.15 149.09 745.59 146.89
  A 2.20 2.11 -68.1 0 1 745.23 146.00
  Q 745.15 145.42 745.24 144.84
  Q 745.33 144.32 744.80 144.26
  L 743.78 144.15
  Q 743.20 144.09 743.27 143.51
  C 744.95 130.06 755.86 115.69 764.20 105.45
  Q 773.91 93.54 783.49 81.54
  C 788.20 75.64 794.18 68.78 800.46 64.83
  A 1.47 1.41 -55.1 0 1 801.46 64.63
  Q 803.87 65.05 805.09 63.12
  Q 805.42 62.59 805.97 62.87
  L 813.17 66.40
  A 0.42 0.42 0.0 0 1 813.20 67.14
  L 811.58 68.14
  Q 810.89 68.56 811.70 68.50
  Z
  M 802.45 101.39
  L 803.74 102.53
  A 0.51 0.50 26.8 0 0 804.57 102.26
  L 808.97 82.57
  Q 809.42 80.56 807.74 81.74
  C 802.80 85.21 798.31 91.64 794.66 96.51
  A 0.58 0.57 37.7 0 1 793.85 96.61
  Q 793.19 96.09 793.27 95.26
  Q 793.33 94.60 792.86 95.07
  C 791.70 96.21 791.56 97.41 792.01 98.96
  Q 792.28 99.87 791.74 100.51
  Q 784.82 108.90 779.34 117.64
  Q 778.70 118.65 779.61 117.88
  C 785.31 113.11 791.71 111.46 798.78 109.51
  Q 799.28 109.37 799.42 108.88
  L 801.47 101.67
  A 0.60 0.60 0.0 0 1 802.45 101.39
  Z
  M 798.14 126.66
  Q 798.78 126.99 799.11 127.63
  A 0.47 0.47 0.0 0 0 799.99 127.49
  L 800.17 126.34
  A 0.50 0.49 -1.3 0 0 799.58 125.78
  L 798.23 126.04
  A 0.33 0.33 0.0 0 0 798.14 126.66
  Z
  M 776.6879 130.5514
  A 4.09 0.40 -27.5 0 0 772.8753 132.0852
  A 4.09 0.40 -27.5 0 0 769.4321 134.3286
  A 4.09 0.40 -27.5 0 0 773.2447 132.7948
  A 4.09 0.40 -27.5 0 0 776.6879 130.5514
  Z
  M 797.92 134.87
  L 797.51 135.18
  Q 797.10 135.48 797.28 135.96
  Q 797.70 137.05 797.37 138.24
  Q 797.35 138.33 797.44 138.35
  L 797.76 138.41
  Q 798.02 138.47 798.08 138.21
  L 799.66 131.89
  A 0.55 0.55 0.0 0 0 799.14 131.20
  L 798.78 131.18
  Q 798.65 131.18 798.64 131.31
  L 798.28 134.25
  Q 798.23 134.63 797.92 134.87
  Z"
/>
<path fill="#000000" d="
  M 917.11 78.25
  Q 917.09 78.28 917.12 78.30
  L 917.35 78.46
  Q 917.49 78.56 917.59 78.42
  Q 921.78 72.72 927.09 68.08
  Q 927.80 67.46 928.67 67.80
  L 929.01 67.93
  A 0.75 0.75 0.0 0 1 929.25 69.17
  C 922.49 75.57 918.49 85.11 911.00 90.51
  A 1.53 1.52 -61.9 0 1 910.09 90.79
  C 906.81 90.71 906.07 93.89 905.15 96.33
  A 1.05 1.04 -87.0 0 1 904.45 96.97
  Q 902.86 97.41 902.37 98.10
  C 889.24 116.69 871.04 134.23 854.56 151.55
  Q 854.20 151.93 853.70 151.76
  L 845.79 149.09
  Q 845.30 148.92 845.01 148.48
  C 841.62 143.24 838.35 139.04 838.62 131.99
  Q 839.70 103.96 841.43 75.95
  C 841.69 71.83 839.81 68.43 840.75 64.27
  A 1.44 1.43 -72.9 0 1 842.67 63.25
  C 852.08 66.96 856.91 76.58 857.74 86.52
  Q 857.74 86.56 857.60 91.50
  C 857.50 94.86 858.97 97.83 858.69 101.24
  Q 858.65 101.71 858.17 101.74
  Q 857.95 101.76 857.74 101.83
  Q 857.34 101.97 857.24 102.39
  L 854.65 113.77
  Q 854.54 114.26 854.71 114.74
  L 856.12 118.68
  A 0.47 0.47 0.0 0 0 856.89 118.87
  C 869.61 107.12 880.81 93.81 891.11 79.89
  Q 891.41 79.49 891.91 79.42
  C 896.58 78.80 897.28 74.64 902.21 75.05
  A 0.98 0.96 23.3 0 0 903.01 74.74
  L 908.16 69.18
  A 2.50 2.50 0.0 0 1 910.74 68.49
  L 911.25 68.65
  Q 913.20 69.25 911.88 70.80
  Q 906.24 77.44 899.79 83.29
  Q 899.77 83.31 899.79 83.33
  L 900.03 83.51
  Q 900.22 83.66 900.41 83.50
  Q 907.96 76.86 914.58 69.31
  C 915.97 67.73 920.21 64.44 922.12 66.15
  A 0.49 0.49 0.0 0 1 922.15 66.84
  L 918.98 70.40
  Q 918.97 70.41 918.98 70.42
  L 919.21 70.61
  Q 919.35 70.74 919.47 70.60
  Q 921.10 68.71 922.56 68.83
  Q 924.08 68.96 923.17 70.18
  L 917.11 78.25
  Z
  M 914.62 82.22
  L 914.40 82.01
  Q 914.36 81.98 914.33 82.01
  Q 912.69 83.64 911.13 85.38
  Q 910.99 85.53 911.06 85.74
  Q 911.20 86.15 911.51 85.84
  L 914.63 82.67
  A 0.31 0.31 0.0 0 0 914.62 82.22
  Z
  M 903.2448 93.2456
  A 1.31 0.53 -34.1 0 0 901.8629 93.5411
  A 1.31 0.53 -34.1 0 0 901.0752 94.7144
  A 1.31 0.53 -34.1 0 0 902.4571 94.4189
  A 1.31 0.53 -34.1 0 0 903.2448 93.2456
  Z
  M 894.01 104.02
  A 0.36 0.36 0.0 0 0 894.64 104.36
  Q 895.38 103.43 895.69 102.26
  Q 895.95 101.27 895.23 102.00
  Q 894.38 102.88 894.01 104.02
  Z
  M 852.77 107.44
  Q 852.32 107.80 852.56 108.41
  A 0.40 0.40 0.0 0 0 853.08 108.64
  Q 853.61 108.44 853.65 107.91
  A 0.54 0.54 0.0 0 0 852.77 107.44
  Z"
/>
<path fill="#000000" d="
  M 527.73 68.09
  Q 526.95 69.25 528.21 68.65
  C 534.35 65.71 534.07 78.62 534.71 81.25
  Q 535.54 84.60 535.57 85.88
  Q 535.73 91.58 534.17 97.11
  C 533.94 97.93 534.40 98.33 534.19 99.04
  Q 532.70 103.94 532.20 109.03
  Q 532.15 109.53 532.41 109.97
  C 534.44 113.32 537.00 117.17 536.67 121.24
  Q 536.62 121.86 536.01 121.95
  L 529.95 122.83
  A 1.08 1.08 0.0 0 0 529.05 123.72
  C 528.54 126.82 528.18 130.40 526.38 133.05
  A 0.88 0.88 0.0 0 0 526.30 133.89
  C 527.88 137.53 524.72 138.48 525.30 141.14
  Q 525.88 143.78 524.33 146.05
  Q 524.11 146.37 524.33 146.70
  L 524.53 147.00
  A 1.17 1.16 30.7 0 1 524.73 147.77
  Q 524.17 153.66 522.20 159.23
  Q 522.03 159.70 521.54 159.63
  C 517.91 159.12 515.14 157.29 511.67 156.18
  Q 511.13 156.01 511.22 155.46
  Q 511.53 153.45 509.73 152.56
  Q 509.24 152.31 509.08 151.79
  Q 508.76 150.73 509.50 150.04
  Q 509.86 149.71 509.70 149.24
  C 508.64 146.16 511.14 139.36 512.03 136.22
  Q 512.19 135.64 512.27 135.05
  L 513.33 126.68
  A 0.35 0.35 0.0 0 0 512.87 126.30
  Q 496.64 131.54 482.36 140.85
  Q 481.86 141.18 481.68 141.74
  Q 481.34 142.79 481.83 143.85
  Q 482.04 144.28 481.83 144.72
  L 475.83 157.29
  A 0.93 0.92 24.3 0 1 474.63 157.74
  L 466.50 154.28
  A 1.05 1.02 -88.3 0 1 465.92 153.65
  C 464.81 150.20 461.25 148.59 461.07 145.08
  Q 461.04 144.58 460.55 144.51
  L 459.67 144.39
  Q 459.05 144.30 459.15 143.69
  C 460.47 135.33 464.79 127.14 469.44 120.18
  C 478.09 107.22 488.51 95.47 498.21 83.29
  C 503.69 76.41 509.05 70.59 515.28 65.79
  Q 516.60 64.77 518.79 64.89
  Q 519.34 64.92 519.82 64.66
  Q 520.47 64.30 520.80 63.62
  Q 521.09 63.03 521.71 63.24
  Q 524.75 64.26 528.32 66.41
  Q 529.11 66.88 529.15 67.54
  A 0.59 0.59 0.0 0 1 528.40 68.13
  Q 527.82 67.95 527.73 68.09
  Z
  M 518.19 101.56
  L 519.71 102.82
  A 0.47 0.47 0.0 0 0 520.47 102.56
  L 524.94 82.54
  A 0.65 0.65 0.0 0 0 524.17 81.77
  C 521.18 82.42 512.95 93.54 510.96 96.34
  Q 510.64 96.78 510.31 96.87
  Q 509.83 97.00 509.46 96.66
  A 0.91 0.90 28.5 0 1 509.19 95.76
  Q 509.26 95.50 509.21 95.24
  Q 509.13 94.88 508.88 95.14
  Q 507.02 97.10 507.95 99.64
  A 0.98 0.97 -35.5 0 1 507.79 100.59
  Q 500.99 108.89 495.19 117.92
  Q 494.57 118.88 495.47 118.16
  C 501.35 113.42 507.49 111.74 514.64 109.81
  Q 515.16 109.67 515.31 109.15
  L 517.45 101.78
  A 0.46 0.46 0.0 0 1 518.19 101.56
  Z
  M 515.18 128.12
  A 0.37 0.37 0.0 0 0 515.83 128.02
  Q 516.06 127.32 516.03 126.56
  Q 516.01 125.94 515.40 126.02
  L 514.50 126.14
  Q 513.83 126.23 514.22 126.78
  L 515.18 128.12
  Z
  M 492.7056 130.7748
  A 4.14 0.40 -27.4 0 0 488.8459 132.3249
  A 4.14 0.40 -27.4 0 0 485.3544 134.5852
  A 4.14 0.40 -27.4 0 0 489.2141 133.0351
  A 4.14 0.40 -27.4 0 0 492.7056 130.7748
  Z
  M 513.41 137.91
  Q 513.33 138.19 513.43 138.40
  Q 513.64 138.80 513.82 138.38
  Q 515.13 135.43 515.33 133.04
  Q 515.61 129.75 514.27 132.77
  Q 514.25 132.82 514.35 133.93
  A 1.15 1.13 -23.9 0 1 513.97 134.90
  Q 512.82 135.93 513.39 137.38
  Q 513.49 137.64 513.41 137.91
  Z"
/>
<path fill="#000000" d="
  M 923.33 67.06
  Q 924.25 64.60 925.67 64.50
  Q 929.14 64.25 926.68 66.71
  Q 926.49 66.90 925.19 67.92
  Q 924.13 68.76 923.44 67.83
  A 0.81 0.79 37.6 0 1 923.33 67.06
  Z"
/>
<path fill="#000000" d="
  M 466.65 91.17
  Q 462.41 91.65 461.18 95.84
  Q 460.95 96.62 462.12 97.15
  Q 462.84 97.49 462.29 98.05
  C 457.73 102.74 452.97 107.69 450.21 113.80
  A 0.55 0.54 -63.9 0 1 449.47 114.06
  Q 448.94 113.80 448.63 113.30
  Q 448.07 112.39 447.92 113.45
  C 447.24 118.01 444.74 120.65 442.35 124.12
  C 441.21 125.76 441.24 127.28 441.06 129.19
  A 0.41 0.41 0.0 0 1 440.54 129.55
  Q 438.95 129.11 438.99 127.52
  A 0.44 0.44 0.0 0 0 438.39 127.10
  Q 438.12 127.22 438.01 127.55
  Q 437.23 129.97 439.05 131.73
  A 0.82 0.81 -45.7 0 1 439.06 132.89
  L 438.60 133.34
  A 0.83 0.82 -45.2 0 1 437.44 133.35
  L 436.43 132.37
  Q 436.08 132.03 435.71 132.35
  Q 432.97 134.76 435.22 137.75
  A 1.40 1.39 79.6 0 0 435.91 138.23
  Q 436.73 138.49 437.21 139.18
  A 0.78 0.77 46.9 0 1 437.19 140.09
  Q 435.96 141.66 434.12 140.63
  Q 433.56 140.31 433.37 140.93
  Q 432.46 143.95 429.54 145.21
  A 0.93 0.92 63.3 0 0 429.11 146.53
  Q 429.69 147.51 429.80 148.61
  Q 429.85 149.15 429.42 149.48
  Q 429.06 149.77 428.64 149.57
  Q 428.43 149.48 428.20 149.11
  Q 427.99 148.75 427.67 148.44
  Q 427.26 148.06 426.98 148.54
  Q 424.41 152.94 423.62 157.99
  A 0.69 0.68 17.1 0 0 424.02 158.73
  L 425.53 159.41
  A 0.54 0.54 0.0 0 1 425.84 159.99
  L 424.91 165.80
  A 1.20 1.20 0.0 0 1 423.90 166.80
  C 419.37 167.49 411.99 166.82 409.52 162.71
  Q 409.27 162.28 408.82 162.05
  C 405.21 160.18 407.18 155.32 408.39 151.86
  Q 409.30 149.25 410.93 145.79
  Q 417.03 132.88 422.78 119.38
  A 1.08 1.07 12.0 0 0 421.80 117.88
  Q 416.76 117.85 412.20 115.85
  Q 411.75 115.65 411.29 115.83
  Q 409.49 116.50 408.00 115.03
  Q 403.93 111.04 399.91 107.04
  A 1.66 1.60 -17.8 0 0 399.02 106.60
  Q 398.10 106.47 397.59 105.66
  C 389.81 93.19 395.47 78.66 402.96 67.23
  Q 403.26 66.78 403.76 66.98
  L 404.10 67.11
  Q 404.67 67.33 405.12 66.91
  L 406.51 65.61
  A 0.95 0.95 0.0 0 1 407.47 65.41
  Q 412.33 67.09 416.98 69.14
  C 419.18 70.11 419.77 71.55 420.74 73.54
  Q 420.97 74.02 420.81 74.53
  C 420.13 76.69 419.75 78.91 418.67 80.94
  Q 415.50 86.93 413.89 93.51
  Q 413.78 93.99 413.39 94.30
  L 412.23 95.23
  Q 411.87 95.52 411.78 95.97
  Q 410.46 102.67 414.53 108.02
  A 1.03 1.02 71.7 0 0 415.32 108.42
  Q 427.28 108.52 434.28 99.09
  Q 441.67 89.12 448.86 79.01
  Q 449.19 78.55 449.63 78.90
  Q 449.88 79.10 450.03 79.37
  Q 450.41 80.10 450.87 79.42
  L 455.78 72.29
  A 1.89 1.85 31.7 0 1 458.23 71.74
  Q 458.67 71.98 459.38 71.85
  Q 459.81 71.76 460.37 71.35
  Q 463.87 68.73 468.05 70.09
  Q 468.57 70.26 468.66 70.80
  Q 468.96 72.61 470.89 72.71
  Q 471.39 72.73 471.66 73.16
  Q 473.86 76.68 474.58 80.78
  Q 474.67 81.31 474.46 81.80
  Q 472.21 86.95 468.45 91.14
  Q 468.14 91.48 467.85 91.54
  Q 467.50 91.61 467.29 91.40
  Q 467.03 91.12 466.65 91.17
  Z"
/>
<path fill="#000000" d="
  M 176.80 127.37
  L 176.52 128.03
  Q 176.34 128.46 176.01 128.78
  L 158.86 145.93
  Q 158.47 146.32 158.86 146.72
  L 171.44 159.27
  Q 171.89 159.71 171.44 160.16
  L 167.29 164.29
  A 0.58 0.58 0.0 0 1 166.47 164.29
  L 130.57 128.39
  A 0.97 0.94 21.5 0 1 130.29 127.77
  Q 130.27 127.56 130.19 127.38
  A 0.23 0.22 -60.2 0 0 129.76 127.50
  L 129.79 127.86
  Q 129.85 128.39 129.47 128.77
  L 111.77 146.45
  Q 111.42 146.80 111.77 147.15
  L 141.63 177.00
  A 0.34 0.33 63.7 0 1 141.44 177.57
  L 133.95 178.65
  Q 133.37 178.73 132.95 178.31
  L 106.72 152.08
  Q 106.44 151.79 106.15 152.08
  L 93.26 164.98
  A 0.52 0.52 0.0 0 1 92.53 164.98
  L 88.16 160.81
  A 0.48 0.48 0.0 0 1 88.15 160.12
  L 124.50 123.77
  Q 124.77 123.50 125.13 123.38
  L 125.52 123.24
  A 0.25 0.24 40.5 0 0 125.48 122.77
  L 124.98 122.67
  Q 124.82 122.64 124.71 122.53
  L 105.21 103.02
  Q 104.82 102.63 104.44 103.02
  L 81.45 125.97
  A 2.76 2.76 0.0 0 1 77.63 126.05
  L 77.07 125.53
  A 3.45 3.45 0.0 0 1 76.96 120.55
  L 99.48 97.99
  Q 99.82 97.64 99.48 97.30
  L 87.70 85.52
  Q 87.16 84.98 87.70 84.45
  L 91.59 80.56
  Q 92.16 79.99 92.73 80.56
  L 104.42 92.27
  Q 104.81 92.67 105.21 92.27
  L 123.01 74.48
  Q 123.28 74.21 123.01 73.94
  L 117.32 68.27
  Q 116.41 67.36 117.68 67.16
  L 123.89 66.17
  Q 125.17 65.97 126.03 66.93
  L 128.02 69.17
  Q 128.22 69.39 128.43 69.17
  L 130.61 66.82
  Q 131.53 65.83 132.87 65.99
  L 139.44 66.77
  Q 140.54 66.91 139.76 67.69
  L 133.37 74.10
  A 0.20 0.19 -46.1 0 0 133.37 74.37
  L 176.38 117.36
  Q 176.61 117.59 176.67 117.92
  Q 176.71 118.10 176.77 118.26
  Q 177.18 119.38 177.26 118.30
  Q 177.28 118.14 177.20 117.94
  Q 177.11 117.70 177.29 117.52
  L 184.20 110.61
  Q 184.69 110.12 184.79 110.80
  L 185.86 118.21
  A 1.35 1.35 0.0 0 1 185.47 119.37
  L 181.94 122.76
  Q 181.79 122.90 181.94 123.05
  L 185.44 126.33
  Q 185.86 126.72 185.77 127.28
  L 184.62 134.76
  A 0.36 0.36 0.0 0 1 184.01 134.96
  L 177.62 128.58
  Q 177.27 128.23 177.24 127.73
  Q 177.23 127.58 177.21 127.42
  Q 177.10 126.65 176.80 127.37
  Z
  M 172.04 123.12
  Q 172.28 123.29 172.47 123.24
  Q 173.15 123.06 172.43 122.78
  Q 172.25 122.72 172.06 122.71
  Q 171.75 122.70 171.52 122.47
  L 128.51 79.47
  Q 128.25 79.21 127.99 79.47
  L 109.62 97.80
  Q 109.57 97.85 109.61 97.91
  Q 109.72 98.07 109.96 98.08
  Q 110.26 98.10 110.48 98.31
  L 153.10 140.94
  Q 153.49 141.33 153.88 140.94
  L 171.67 123.15
  Q 171.84 122.98 172.04 123.12
  Z"
/>
<path fill="#000000" d="
  M 331.97 100.71
  Q 332.03 102.33 332.93 100.98
  L 336.91 95.02
  Q 337.18 94.62 337.67 94.56
  L 338.52 94.45
  Q 339.49 94.34 339.25 93.40
  Q 338.59 90.75 339.67 90.42
  C 346.51 80.38 361.61 71.13 372.52 66.76
  C 374.65 65.91 377.85 67.21 379.95 68.17
  Q 381.68 68.95 382.73 70.73
  C 385.00 74.57 387.45 78.74 386.51 83.03
  A 0.81 0.81 0.0 0 1 385.91 83.64
  C 375.55 86.32 368.53 90.89 361.12 98.38
  Q 360.70 98.81 360.25 98.41
  Q 360.15 98.33 360.04 98.27
  Q 359.71 98.12 359.45 98.36
  L 349.89 107.03
  Q 349.50 107.39 349.37 107.90
  Q 348.88 109.81 348.48 110.25
  C 344.25 114.89 331.61 129.44 332.92 135.79
  Q 333.03 136.31 333.50 136.55
  Q 334.85 137.25 336.45 136.93
  Q 347.22 134.82 358.81 132.43
  A 4.45 4.45 0.0 0 1 361.75 132.83
  L 362.80 133.36
  A 0.75 0.75 0.0 0 1 362.55 134.77
  Q 354.51 135.83 347.06 139.01
  A 0.65 0.65 0.0 0 0 347.27 140.26
  C 351.61 140.53 353.18 138.44 356.66 137.73
  Q 366.41 135.74 376.21 134.12
  C 378.43 133.76 380.95 134.25 383.72 133.97
  Q 384.96 133.85 385.40 135.05
  Q 385.59 135.55 385.06 135.63
  Q 380.98 136.24 377.01 136.93
  Q 376.11 137.08 375.78 138.08
  A 0.66 0.65 28.6 0 0 376.00 138.81
  Q 376.63 139.32 376.87 140.11
  Q 377.04 140.67 376.48 140.84
  Q 364.37 144.60 352.26 148.33
  Q 349.84 149.08 349.52 151.04
  Q 349.44 151.51 348.98 151.65
  C 345.43 152.71 339.23 154.67 336.16 151.82
  Q 335.79 151.47 335.30 151.37
  C 332.19 150.74 330.07 148.35 327.00 148.39
  Q 326.48 148.40 326.10 148.05
  Q 325.33 147.34 324.73 146.50
  C 319.64 139.47 315.51 134.36 316.69 126.55
  Q 316.77 126.05 317.06 125.65
  Q 319.09 122.84 318.76 119.29
  Q 318.71 118.75 319.24 118.71
  L 319.99 118.66
  A 0.59 0.58 87.0 0 0 320.53 118.05
  C 320.50 116.45 320.41 115.24 321.15 113.77
  C 322.58 110.95 327.53 100.78 331.28 99.39
  A 0.49 0.49 0.0 0 1 331.94 99.83
  L 331.97 100.71
  Z
  M 329.30 107.09
  Q 329.59 106.83 329.53 106.47
  A 0.22 0.22 0.0 0 0 329.22 106.31
  Q 328.30 106.77 328.09 107.75
  Q 327.98 108.25 328.48 108.14
  Q 328.92 108.04 329.06 107.50
  Q 329.12 107.26 329.30 107.09
  Z
  M 344.8169 109.1989
  A 1.48 0.35 133.2 0 0 346.0851 108.3596
  A 1.48 0.35 133.2 0 0 346.8431 107.0411
  A 1.48 0.35 133.2 0 0 345.5749 107.8804
  A 1.48 0.35 133.2 0 0 344.8169 109.1989
  Z
  M 337.37 118.67
  L 335.25 122.04
  A 0.25 0.25 0.0 0 0 335.65 122.33
  Q 335.96 121.95 336.12 121.48
  A 1.95 1.91 -13.0 0 1 336.60 120.73
  Q 337.41 119.91 337.72 118.82
  A 0.19 0.19 0.0 0 0 337.37 118.67
  Z"
/>
<path fill="#000000" d="
  M 613.32 96.89
  Q 613.31 96.90 613.32 96.91
  L 613.53 97.04
  Q 613.73 97.16 613.85 96.96
  Q 622.73 83.18 633.97 71.23
  C 637.10 67.91 649.46 68.94 653.00 71.25
  A 0.47 0.46 -46.4 0 1 653.01 72.01
  L 651.54 73.07
  A 0.26 0.26 0.0 0 0 651.79 73.52
  L 654.32 72.55
  Q 655.00 72.29 655.50 72.82
  L 658.64 76.13
  Q 659.29 76.82 658.46 77.27
  Q 643.07 85.72 632.09 99.41
  Q 631.76 99.82 631.24 99.77
  L 630.43 99.69
  Q 629.84 99.63 629.77 100.22
  C 629.27 104.28 626.98 107.09 624.42 110.87
  C 623.09 112.84 622.91 114.83 622.34 117.08
  A 1.51 1.48 -13.0 0 1 621.82 117.89
  Q 620.10 119.27 619.83 120.05
  Q 614.18 136.27 607.47 152.39
  A 0.55 0.54 -66.1 0 1 606.73 152.68
  L 601.66 150.31
  Q 601.17 150.09 600.97 150.58
  L 600.72 151.20
  Q 600.55 151.61 600.12 151.56
  C 584.90 149.82 590.89 132.74 588.36 123.09
  C 586.18 114.80 588.57 106.70 587.10 99.07
  A 0.60 0.59 -19.6 0 0 586.23 98.66
  Q 579.12 102.53 575.37 109.75
  A 1.30 1.29 -38.6 0 0 575.26 110.69
  C 575.50 111.61 575.56 111.83 575.13 112.73
  C 569.21 125.20 564.22 139.09 556.69 150.60
  Q 556.42 151.02 555.92 151.07
  C 548.55 151.79 548.30 148.35 545.35 143.03
  Q 544.04 140.68 543.66 138.17
  C 543.10 134.46 542.60 131.19 544.01 127.78
  C 552.24 107.79 565.47 92.19 580.85 77.32
  A 0.46 0.46 0.0 0 1 581.35 77.23
  C 588.64 80.38 598.00 86.19 600.01 94.48
  Q 601.61 101.07 602.96 107.40
  Q 603.20 108.56 603.79 107.53
  Q 613.25 91.00 624.93 75.47
  Q 625.48 74.74 627.63 72.58
  A 3.53 3.52 -70.7 0 1 629.72 71.57
  L 631.34 71.38
  A 0.58 0.57 18.2 0 1 631.83 72.34
  Q 621.28 83.63 613.32 96.89
  Z
  M 631.1603 77.4254
  A 1.38 0.31 123.9 0 0 632.1873 76.4529
  A 1.38 0.31 123.9 0 0 632.6997 75.1346
  A 1.38 0.31 123.9 0 0 631.6727 76.1071
  A 1.38 0.31 123.9 0 0 631.1603 77.4254
  Z
  M 580.6838 81.6808
  A 1.48 0.34 -44.6 0 0 579.3913 82.4779
  A 1.48 0.34 -44.6 0 0 578.5762 83.7592
  A 1.48 0.34 -44.6 0 0 579.8687 82.9621
  A 1.48 0.34 -44.6 0 0 580.6838 81.6808
  Z
  M 634.33 89.98
  Q 634.06 90.28 634.10 90.67
  Q 634.16 91.23 634.49 90.78
  L 636.09 88.56
  A 0.14 0.14 0.0 0 0 635.91 88.36
  Q 635.33 88.68 634.99 89.25
  Q 634.96 89.31 634.33 89.98
  Z
  M 630.4502 96.3601
  A 1.82 0.26 122.2 0 0 631.6400 94.9585
  A 1.82 0.26 122.2 0 0 632.3898 93.2799
  A 1.82 0.26 122.2 0 0 631.2000 94.6815
  A 1.82 0.26 122.2 0 0 630.4502 96.3601
  Z"
/>
<path fill="#000000" d="
  M 754.91 73.39
  Q 756.10 73.01 757.23 72.51
  Q 758.08 72.14 758.71 72.82
  L 761.69 76.02
  Q 762.35 76.72 761.51 77.19
  Q 746.12 85.66 735.13 99.37
  Q 734.80 99.78 734.29 99.67
  L 733.53 99.51
  A 0.51 0.51 0.0 0 0 732.92 99.93
  C 732.24 104.47 729.75 107.41 727.42 110.92
  C 726.14 112.86 726.01 114.89 725.38 117.08
  A 1.52 1.48 80.3 0 1 724.84 117.87
  Q 723.25 119.06 722.93 119.97
  Q 717.22 136.28 710.48 152.50
  A 0.33 0.33 0.0 0 1 710.04 152.67
  L 705.00 150.34
  Q 704.27 150.00 703.94 150.74
  L 703.73 151.19
  Q 703.55 151.58 703.12 151.53
  C 691.12 150.02 691.86 137.12 692.17 128.27
  C 692.30 124.58 690.77 121.69 690.53 118.18
  C 690.27 114.32 690.56 111.17 690.84 107.36
  C 691.05 104.41 690.67 101.80 690.24 99.00
  A 0.61 0.61 0.0 0 0 689.35 98.55
  Q 682.26 102.39 678.51 109.55
  A 1.41 1.40 54.2 0 0 678.37 110.44
  C 678.50 111.28 678.67 111.64 678.28 112.47
  Q 671.57 126.73 665.19 141.14
  Q 663.54 144.85 659.72 150.57
  Q 659.45 150.99 658.95 151.00
  C 655.74 151.07 653.13 151.59 651.21 148.00
  C 649.58 144.96 647.26 141.78 646.80 138.32
  C 646.33 134.79 645.64 131.42 647.04 127.99
  C 655.20 107.86 668.37 92.31 683.83 77.34
  A 0.70 0.70 0.0 0 1 684.60 77.20
  Q 693.61 81.12 700.44 88.32
  C 703.38 91.41 705.01 102.86 706.18 107.48
  Q 706.35 108.16 706.72 107.56
  C 713.90 95.57 721.07 84.00 730.14 72.90
  A 3.83 3.79 15.3 0 1 732.57 71.53
  L 734.49 71.24
  A 0.54 0.54 0.0 0 1 734.96 72.14
  Q 724.50 83.45 716.50 96.60
  Q 716.48 96.62 716.51 96.64
  L 716.72 96.77
  Q 716.93 96.90 717.07 96.69
  Q 725.31 83.88 735.64 72.68
  Q 737.51 70.64 739.74 69.96
  C 744.44 68.50 752.30 68.57 756.03 71.14
  A 0.53 0.52 45.2 0 1 756.03 72.01
  L 754.68 72.91
  Q 753.12 73.95 754.91 73.39
  Z
  M 734.77 77.01
  L 735.77 75.55
  Q 736.13 75.02 735.56 75.29
  Q 734.45 75.82 734.32 76.85
  A 0.25 0.24 -25.0 0 0 734.77 77.01
  Z
  M 683.20 82.02
  Q 682.29 82.16 681.99 83.18
  Q 681.71 84.14 682.42 83.44
  L 683.42 82.45
  Q 683.97 81.89 683.20 82.02
  Z
  M 738.63 89.21
  Q 738.95 88.96 739.14 88.62
  A 0.17 0.17 0.0 0 0 738.89 88.40
  Q 737.80 89.25 737.17 90.51
  A 0.22 0.22 0.0 0 0 737.51 90.77
  Q 737.96 90.37 738.19 89.80
  Q 738.34 89.44 738.63 89.21
  Z
  M 735.41 93.72
  A 0.18 0.18 0.0 0 0 735.14 93.48
  Q 734.15 94.32 733.46 95.99
  Q 733.38 96.18 733.56 96.27
  L 733.57 96.28
  A 0.31 0.13 -57.1 0 0 733.84 96.10
  L 735.41 93.72
  Z"
/>
<path fill="#000000" d="
  M 807.79 85.00
  L 807.08 88.37
  Q 806.91 89.16 806.11 89.11
  L 805.68 89.09
  A 0.63 0.63 0.0 0 1 805.11 88.29
  L 805.92 85.31
  Q 806.12 84.61 806.84 84.52
  L 807.31 84.47
  A 0.44 0.44 0.0 0 1 807.79 85.00
  Z"
/>
<rect fill="#000000" x="-0.93" y="-2.38" transform="translate(522.39,87.07) rotate(15.0)" width="1.86" height="4.76" rx="0.74"/>
<path fill="#000000" d="
  M 909.24 94.58
  A 0.30 0.30 0.0 0 1 908.84 94.72
  L 908.70 94.65
  A 1.82 1.46 26.0 0 1 907.70 92.54
  L 907.83 92.27
  A 1.82 1.46 26.0 0 1 910.11 91.75
  L 910.25 91.82
  A 0.30 0.30 0.0 0 1 910.39 92.22
  L 909.24 94.58
  Z"
/>
<path fill="#000000" d="
  M 463.46 93.03
  Q 464.87 91.86 466.68 91.69
  A 0.57 0.57 0.0 0 1 467.17 92.63
  L 464.65 95.55
  A 0.62 0.61 51.7 0 1 463.64 95.43
  L 463.16 94.52
  A 1.23 1.22 -33.8 0 1 463.46 93.03
  Z"
/>
<path fill="#000000" d="
  M 621.63 124.49
  A 0.22 0.22 0.0 0 1 621.38 124.67
  L 621.26 124.65
  A 1.89 1.76 -81.6 0 1 619.79 122.53
  L 620.03 120.93
  A 1.89 1.76 -81.6 0 1 622.05 119.31
  L 622.17 119.33
  A 0.22 0.22 0.0 0 1 622.35 119.58
  L 621.63 124.49
  Z"
/>
<path fill="#000000" d="
  M 724.75 124.37
  A 0.23 0.23 0.0 0 1 724.49 124.57
  L 724.36 124.55
  A 1.89 1.74 -81.8 0 1 722.91 122.43
  L 723.13 120.85
  A 1.89 1.74 -81.8 0 1 725.13 119.23
  L 725.26 119.24
  A 0.23 0.23 0.0 0 1 725.45 119.50
  L 724.75 124.37
  Z"
/>
<path fill="#000000" d="
  M 109.04 128.16
  Q 106.94 131.53 104.66 134.90
  Q 104.35 135.35 104.06 134.90
  L 99.24 127.47
  Q 98.98 127.07 99.02 126.59
  C 99.75 117.62 112.85 122.06 109.04 128.16
  Z
  M 106.78 126.40
  A 2.41 2.41 0.0 0 0 104.37 123.99
  A 2.41 2.41 0.0 0 0 101.96 126.40
  A 2.41 2.41 0.0 0 0 104.37 128.81
  A 2.41 2.41 0.0 0 0 106.78 126.40
  Z"
/>
<path fill="#000000" d="
  M 378.89 129.64
  A 0.14 0.14 0.0 0 1 379.05 129.76
  L 379.06 129.86
  A 7.80 2.50 -7.4 0 1 371.65 133.34
  L 371.39 133.38
  A 7.80 2.50 -7.4 0 1 363.33 131.90
  L 363.32 131.80
  A 0.14 0.14 0.0 0 1 363.44 131.64
  L 378.89 129.64
  Z"
/>
<path fill="#000000" d="
  M 382.23 138.78
  L 378.71 139.95
  A 0.62 0.62 0.0 0 1 378.05 139.78
  L 377.01 138.61
  A 0.62 0.62 0.0 0 1 377.39 137.59
  L 380.61 137.13
  A 0.62 0.62 0.0 0 1 380.89 137.16
  L 382.23 137.60
  A 0.62 0.62 0.0 0 1 382.23 138.78
  Z"
/>
<path fill="#000000" d="
  M 367.72 144.87
  A 0.11 0.11 0.0 0 1 367.86 144.94
  L 367.87 144.99
  A 4.99 1.76 -17.0 0 1 363.61 148.13
  L 363.31 148.22
  A 4.99 1.76 -17.0 0 1 358.02 148.00
  L 358.01 147.95
  A 0.11 0.11 0.0 0 1 358.08 147.82
  L 367.72 144.87
  Z"
/>
<path fill="#000000" d="
  M 356.93 150.80
  C 355.90 151.02 353.52 151.21 352.63 150.89
  A 0.66 0.65 46.1 0 1 352.65 149.65
  L 355.97 148.59
  A 1.09 1.09 0.0 0 1 357.19 149.00
  L 357.47 149.39
  Q 358.25 150.50 356.93 150.80
  Z"
/>
<path fill="#000000" d="
  M 426.24 158.67
  A 0.13 0.13 0.0 0 1 426.07 158.75
  L 426.01 158.73
  A 2.89 2.06 -70.2 0 1 425.05 155.31
  L 425.15 155.03
  A 2.89 2.06 -70.2 0 1 428.06 153.00
  L 428.13 153.03
  A 0.13 0.13 0.0 0 1 428.21 153.19
  L 426.24 158.67
  Z"
/>
</svg>
